<svg width="685" height="392" viewBox="0 0 685 392" fill="none" xmlns="http://www.w3.org/2000/svg">
<path d="M0 178.6H20.2C21.8 182.4 22.6 184.5 29.2 193L67.6 241.6V203.1C67.6 187.5 66.6 183.6 65.2 178.7H81.5C80.4 183.2 79.4 187.7 79.4 196.8V242.3C79.4 255.4 81 259.9 82.2 263.4H66.5C65 258.9 62.2 254.9 59.3 251.2L23.3 205.1V238.5C23.3 246 24.1 256.5 26.7 263.4H8.6C11.3 254.6 11.4 242.6 11.4 241V190C7.4 184.9 5.1 182.7 0 178.6ZM104.9 220.1C104.9 201.2 121.9 178 151.3 178C179.3 178 193.4 199.2 193.4 220.7C193.4 247.1 173.1 264 149.1 264C121.9 264 104.9 241.8 104.9 220.1ZM119.1 218.2C119.1 241.1 136.5 254.8 152.7 254.8C171.6 254.8 180.4 237.1 180.4 223.8C180.4 206.2 167 187 147.2 187C130.1 187 119.1 201.8 119.1 218.2ZM218.7 241.5V196.4C218.7 186.5 217.3 181.8 216.4 178.9L232.9 178.7C254.7 178.4 265 191.5 265 202.9C265 216.7 252.8 223.5 249 225.5C256.6 238.8 267 251.4 277 263.5H265.4C254 253.7 248.8 247.6 231.3 224.3V245.2C231.3 251.8 231.4 254.5 233.7 263.5H216.5C218.2 255 218.7 248.8 218.7 241.5ZM231.2 185.9V223C239.2 220.7 252.1 217.1 252.1 204.1C252.1 197.7 248.2 187.6 231.2 185.9ZM286.4 178.9L303.5 178.7C303.4 179.5 303 181.9 303 183.3C303 187.3 305.3 196.1 306.4 200.4L316.6 239.2L337.2 179H338L358.1 239.2L369.1 198.5C370.2 194.1 371.9 187.3 371.9 183L371.7 178.9L388.2 179.1C385.6 185 385 186.8 383.5 192.8L364.2 264.1H354.1L337.5 214.5L320.8 264.1H310.6L293.9 200.6C293.2 198.3 290.2 186.9 286.4 178.9ZM402.8 220.1C402.8 201.2 419.8 178 449.2 178C477.2 178 491.3 199.2 491.3 220.7C491.3 247.1 471 264 447 264C419.8 264 402.8 241.8 402.8 220.1ZM417.1 218.2C417.1 241.1 434.5 254.8 450.7 254.8C469.6 254.8 478.4 237.1 478.4 223.8C478.4 206.2 465 187 445.2 187C428 187 417.1 201.8 417.1 218.2ZM510.6 220.1C510.6 201.2 527.6 178 557 178C585 178 599.1 199.2 599.1 220.7C599.1 247.1 578.8 264 554.8 264C527.6 264 510.6 241.8 510.6 220.1ZM524.9 218.2C524.9 241.1 542.3 254.8 558.5 254.8C577.4 254.8 586.2 237.1 586.2 223.8C586.2 206.2 572.8 187 553 187C535.8 187 524.9 201.8 524.9 218.2ZM623.6 237.6V201.8C623.6 190 621.2 182.9 620.2 179C623.1 178.8 625.3 178.5 629 178.5C644.6 178.5 663.4 180 676.2 196.5C682.4 204.5 684.7 213.6 684.7 221.8C684.7 243.8 667.9 263.4 640.6 263.4H620.1C622 258.1 623.6 253.2 623.6 237.6ZM636.3 201.9V235.6C636.3 245.2 636.3 248.4 637 255.1C662.2 252.6 669.9 234 669.9 220.6C669.9 208.7 663.9 190.1 637 186.4C636.3 191.6 636.3 197.7 636.3 201.9Z" fill="#333333"/>
<path d="M382 306.6H427.7L421.3 319.7C411.8 315.4 406.8 314.3 397.9 314.6V344.2H424.5L417.3 356.1C407.6 353.3 404.4 352.8 398 352.4V383.4C408.8 383.4 414.8 383.4 432.8 377.3L426.6 391.4H382.2C383.7 386.4 385.4 380.4 385.4 369.6V328.1C385.2 322.3 384.4 314 382 306.6ZM454.8 369.4V324.4C454.8 314.5 453.4 309.8 452.5 306.9L469 306.7C490.8 306.4 501.1 319.5 501.1 330.9C501.1 344.7 488.9 351.5 485.1 353.5C492.7 366.8 503.1 379.4 513.1 391.5H501.5C490.1 381.7 484.9 375.6 467.4 352.3V373.2C467.4 379.8 467.5 382.5 469.8 391.5H452.6C454.3 383 454.8 376.8 454.8 369.4ZM467.3 313.9V351C475.3 348.7 488.2 345.1 488.2 332.1C488.2 325.7 484.3 315.5 467.3 313.9ZM567.9 309.8V322.9C564.2 320 559.4 316.2 551.9 316.2C544.6 316.2 538.8 320.9 538.8 327.6C538.8 335.6 545.9 339.8 556.5 345.9C568.7 352.9 572.1 359.6 572.1 367.7C572.1 381.7 561.1 391.9 543.4 391.9C536.7 391.9 532.8 390.8 528.8 389.6V371.6C532.6 376 537.6 381.9 545.4 381.9C552.7 381.9 558.1 376 558.1 370C558.1 364.1 553.5 360.4 551 358.8C532.9 347.5 525.7 343 525.7 330.1C525.7 316.7 536.9 305.6 550.8 305.6C558.4 305.7 563.8 308.1 567.9 309.8Z" fill="#333333"/>
<path d="M265.5 305.7L261 319.9C277.4 314 282.4 314 288 314.1V368.7C288 378.8 286.9 385 285.6 390.3H302.9C301.1 383.7 300.5 376.9 300.5 370.1V314.2C310.6 314.2 305.9 314.2 320.2 314.2C325.9 314.2 323 314.2 327.1 314.2V368.8C327.1 378.9 326 385.1 324.7 390.4H342C340.2 383.8 339.6 377 339.6 370.2V314.3C349.4 314.3 352.5 315.1 361.7 318.8L367.6 305.8H265.5V305.7Z" fill="#333333"/>
<path d="M177.5 375.4L170.5 391.3H129.1C131.2 385.9 132.5 382.6 132.5 364.1V326.7C132.5 314.5 130.9 310.4 129.6 306.7H148.6C146.9 311.1 145.4 314.9 145.3 327.5L144.8 382.8C159.9 381.4 168.4 379.1 177.5 375.4Z" fill="#333333"/>
<path d="M196.9 306.6H242.6L236.2 319.7C226.7 315.4 221.7 314.3 212.8 314.6V344.2H239.4L232.2 356.1C222.5 353.3 219.3 352.8 212.9 352.4V383.4C223.7 383.4 229.7 383.4 247.7 377.3L241.5 391.4H197.1C198.6 386.4 200.3 380.4 200.3 369.6V328.1C200.1 322.3 199.3 314 196.9 306.6Z" fill="#333333"/>
<path d="M302 44H310.864C311.557 45.6773 311.904 46.5653 314.825 50.2653L331.612 71.4787V54.656C331.612 47.848 331.166 46.1213 330.572 44H337.703C337.208 45.9733 336.762 47.9467 336.762 51.8933V71.7747C336.762 77.4973 337.455 79.4707 338 81H331.117C330.473 79.0267 329.235 77.3 327.948 75.672L312.151 55.544V70.1467C312.151 73.4027 312.498 77.9907 313.637 81H305.763C306.952 77.152 307.001 71.9227 307.001 71.232V48.9827C305.219 46.7133 304.228 45.776 302 44Z" fill="#333333"/>
<path d="M380 74.0347L376.958 81H359C359.932 78.6288 360.472 77.1963 360.472 69.0948V52.7437C360.472 47.4085 359.785 45.6302 359.196 44H367.439C366.703 45.9266 366.065 47.6061 366.016 53.0895L365.82 77.2457C372.395 76.6529 376.075 75.6155 380 74.0347Z" fill="#333333"/>
<path d="M346.967 58.1244C345.275 58.5567 344 60.2642 344 62.1233C344 63.0958 344.11 63.4633 344.659 64.1983C345.78 65.7115 347.406 66.3169 349.055 65.8411C350.945 65.3008 351.978 64.0039 352 62.1881C352.022 59.4428 349.582 57.4758 346.967 58.1244Z" fill="#333333"/>
<path fill-rule="evenodd" clip-rule="evenodd" d="M341.174 5.00587C341.449 5.00196 341.724 5 342 5C342.276 5 342.551 5.00196 342.826 5.00587L342.803 6.61587C342.536 6.61208 342.268 6.61017 342 6.61017C341.732 6.61017 341.464 6.61208 341.197 6.61587L341.174 5.00587ZM346.443 5.17064C346.991 5.21287 347.536 5.26284 348.079 5.32045L347.91 6.92164C347.382 6.86566 346.851 6.81709 346.319 6.77604L346.443 5.17064ZM335.921 5.32045C336.464 5.26284 337.009 5.21287 337.557 5.17064L337.681 6.77604C337.149 6.81709 336.618 6.86566 336.09 6.92165L335.921 5.32045ZM351.668 5.81662C352.209 5.90915 352.748 6.00931 353.284 6.117L352.967 7.69565C352.446 7.59102 351.923 7.49369 351.396 7.40379L351.668 5.81662ZM330.716 6.117C331.252 6.00931 331.791 5.90915 332.332 5.81662L332.604 7.40379C332.077 7.49369 331.554 7.59102 331.033 7.69565L330.716 6.117ZM356.811 6.94331C357.342 7.08579 357.869 7.23575 358.394 7.39306L357.932 8.93541C357.422 8.78257 356.909 8.63689 356.393 8.49846L356.811 6.94331ZM325.606 7.39306C326.131 7.23575 326.658 7.08579 327.189 6.94331L327.607 8.49846C327.091 8.63689 326.578 8.78257 326.068 8.93541L325.606 7.39306ZM320.637 9.13854C321.146 8.93293 321.658 8.73444 322.173 8.54319L322.733 10.0528C322.232 10.2386 321.735 10.4314 321.241 10.6312L320.637 9.13854ZM361.827 8.54319C362.342 8.73444 362.854 8.93293 363.363 9.13854L362.759 10.6312C362.265 10.4314 361.768 10.2386 361.267 10.0528L361.827 8.54319ZM315.853 11.3378C316.34 11.0858 316.831 10.8406 317.327 10.6024L318.025 12.0535C317.543 12.285 317.066 12.5232 316.593 12.768L315.853 11.3378ZM366.673 10.6024C367.169 10.8406 367.66 11.0858 368.147 11.3378L367.407 12.768C366.934 12.5232 366.457 12.285 365.975 12.0535L366.673 10.6024ZM371.308 13.1022C371.779 13.385 372.245 13.6743 372.707 13.9702L371.839 15.326C371.39 15.0385 370.937 14.7573 370.479 14.4825L371.308 13.1022ZM311.293 13.9702C311.755 13.6743 312.221 13.385 312.692 13.1022L313.521 14.4825C313.063 14.7573 312.61 15.0385 312.161 15.326L311.293 13.9702ZM375.692 16.0188C376.135 16.3436 376.572 16.6746 377.005 17.0117L376.015 18.2818C375.595 17.9542 375.169 17.6325 374.739 17.3169L375.692 16.0188ZM306.995 17.0117C307.428 16.6746 307.865 16.3436 308.308 16.0188L309.261 17.3169C308.831 17.6325 308.405 17.9542 307.985 18.2818L306.995 17.0117ZM379.789 19.326C380.2 19.6899 380.605 20.0597 381.005 20.4351L379.903 21.6091C379.514 21.2442 379.12 20.8848 378.721 20.5311L379.789 19.326ZM302.995 20.4351C303.395 20.0597 303.8 19.6899 304.211 19.326L305.279 20.5311C304.88 20.8848 304.486 21.2442 304.097 21.6091L302.995 20.4351ZM383.565 22.9951C383.94 23.395 384.31 23.8004 384.674 24.2111L383.469 25.279C383.115 24.8798 382.756 24.4859 382.391 24.0972L383.565 22.9951ZM299.326 24.2111C299.69 23.8004 300.06 23.395 300.435 22.9951L301.609 24.0972C301.244 24.4859 300.885 24.8799 300.531 25.279L299.326 24.2111ZM386.988 26.9951C387.325 27.4277 387.656 27.8654 387.981 28.3079L386.683 29.2606C386.368 28.8305 386.046 28.4052 385.718 27.9847L386.988 26.9951ZM296.019 28.3079C296.344 27.8654 296.675 27.4277 297.012 26.9951L298.282 27.9847C297.954 28.4052 297.632 28.8305 297.317 29.2606L296.019 28.3079ZM293.102 32.6918C293.385 32.221 293.674 31.7546 293.97 31.2928L295.326 32.1614C295.038 32.6102 294.757 33.0634 294.482 33.5209L293.102 32.6918ZM390.03 31.2928C390.326 31.7546 390.615 32.221 390.898 32.6918L389.518 33.5209C389.243 33.0634 388.962 32.6102 388.674 32.1614L390.03 31.2928ZM392.662 35.8529C392.914 36.3401 393.159 36.8314 393.398 37.3267L391.946 38.0246C391.715 37.5433 391.477 37.0659 391.232 36.5925L392.662 35.8529ZM290.602 37.3267C290.841 36.8314 291.086 36.3401 291.338 35.8529L292.768 36.5925C292.523 37.0659 292.285 37.5433 292.054 38.0246L290.602 37.3267ZM394.861 40.6374C395.067 41.1456 395.266 41.6576 395.457 42.173L393.947 42.7332C393.761 42.2324 393.569 41.735 393.369 41.2412L394.861 40.6374ZM288.543 42.173C288.734 41.6576 288.933 41.1456 289.139 40.6374L290.631 41.2412C290.431 41.735 290.239 42.2324 290.053 42.7332L288.543 42.173ZM286.943 47.1894C287.086 46.6584 287.236 46.1305 287.393 45.6058L288.935 46.0682C288.783 46.578 288.637 47.0909 288.498 47.6067L286.943 47.1894ZM396.607 45.6058C396.764 46.1305 396.914 46.6584 397.057 47.1894L395.502 47.6067C395.363 47.0909 395.217 46.578 395.065 46.0682L396.607 45.6058ZM285.817 52.3323C285.909 51.7908 286.009 51.2519 286.117 50.7157L287.696 51.0328C287.591 51.5537 287.494 52.0774 287.404 52.6035L285.817 52.3323ZM397.883 50.7157C397.991 51.2519 398.091 51.7908 398.183 52.3323L396.596 52.6035C396.506 52.0774 396.409 51.5537 396.304 51.0328L397.883 50.7157ZM285.171 57.5571C285.213 57.0094 285.263 56.4639 285.32 55.9206L286.922 56.0904C286.866 56.6184 286.817 57.1486 286.776 57.6809L285.171 57.5571ZM398.68 55.9206C398.737 56.4639 398.787 57.0094 398.829 57.5571L397.224 57.6809C397.183 57.1486 397.134 56.6184 397.078 56.0904L398.68 55.9206ZM398.994 61.1739C398.998 61.4488 399 61.7242 399 62C399 62.2758 398.998 62.5512 398.994 62.8261L397.384 62.8033C397.388 62.536 397.39 62.2682 397.39 62C397.39 61.7318 397.388 61.464 397.384 61.1967L398.994 61.1739ZM285 62C285 61.7242 285.002 61.4488 285.006 61.1739L286.616 61.1967C286.612 61.464 286.61 61.7318 286.61 62C286.61 62.2682 286.612 62.536 286.616 62.8033L285.006 62.8262C285.002 62.5512 285 62.2758 285 62ZM285.32 68.0794C285.263 67.5361 285.213 66.9906 285.171 66.4429L286.776 66.3191C286.817 66.8514 286.866 67.3816 286.922 67.9096L285.32 68.0794ZM398.829 66.4429C398.787 66.9906 398.737 67.5361 398.68 68.0794L397.078 67.9096C397.134 67.3816 397.183 66.8514 397.224 66.3191L398.829 66.4429ZM286.117 73.2843C286.009 72.7481 285.909 72.2092 285.817 71.6677L287.404 71.3965C287.494 71.9226 287.591 72.4463 287.696 72.9672L286.117 73.2843ZM398.183 71.6677C398.091 72.2092 397.991 72.7481 397.883 73.2843L396.304 72.9672C396.409 72.4463 396.506 71.9226 396.596 71.3965L398.183 71.6677ZM287.393 78.3942C287.236 77.8695 287.086 77.3416 286.943 76.8106L288.498 76.3933C288.637 76.9091 288.783 77.422 288.935 77.9318L287.393 78.3942ZM397.057 76.8106C396.914 77.3416 396.764 77.8695 396.607 78.3942L395.065 77.9318C395.217 77.422 395.363 76.9091 395.502 76.3933L397.057 76.8106ZM289.139 83.3627C288.933 82.8544 288.734 82.3424 288.543 81.827L290.053 81.2668C290.239 81.7676 290.431 82.265 290.631 82.7589L289.139 83.3627ZM395.457 81.827C395.266 82.3424 395.067 82.8544 394.861 83.3626L393.369 82.7588C393.569 82.265 393.761 81.7676 393.947 81.2668L395.457 81.827ZM291.338 88.1471C291.086 87.6599 290.841 87.1686 290.602 86.6733L292.054 85.9754C292.285 86.4567 292.523 86.9341 292.768 87.4075L291.338 88.1471ZM393.398 86.6733C393.159 87.1686 392.914 87.6599 392.662 88.1471L391.232 87.4075C391.477 86.9341 391.715 86.4567 391.946 85.9754L393.398 86.6733ZM293.97 92.7072C293.674 92.2454 293.385 91.779 293.102 91.3082L294.482 90.4791C294.757 90.9366 295.038 91.3898 295.326 91.8386L293.97 92.7072ZM390.898 91.3082C390.615 91.779 390.326 92.2454 390.03 92.7072L388.674 91.8386C388.962 91.3898 389.243 90.9366 389.518 90.4791L390.898 91.3082ZM297.012 97.0049C296.675 96.5723 296.344 96.1346 296.019 95.6921L297.317 94.7394C297.632 95.1695 297.954 95.5948 298.282 96.0153L297.012 97.0049ZM387.981 95.6921C387.656 96.1346 387.325 96.5723 386.988 97.0049L385.718 96.0153C386.046 95.5948 386.368 95.1695 386.683 94.7394L387.981 95.6921ZM384.674 99.7889C384.31 100.2 383.94 100.605 383.565 101.005L382.391 99.9028C382.756 99.5141 383.115 99.1202 383.469 98.721L384.674 99.7889ZM300.435 101.005C300.06 100.605 299.69 100.2 299.326 99.7889L300.531 98.721C300.885 99.1202 301.244 99.5141 301.609 99.9028L300.435 101.005ZM304.211 104.674C303.8 104.31 303.395 103.94 302.995 103.565L304.097 102.391C304.486 102.756 304.88 103.115 305.279 103.469L304.211 104.674ZM381.005 103.565C380.605 103.94 380.2 104.31 379.789 104.674L378.721 103.469C379.12 103.115 379.514 102.756 379.903 102.391L381.005 103.565ZM377.005 106.988C376.572 107.325 376.135 107.656 375.692 107.981L374.739 106.683C375.169 106.368 375.595 106.046 376.015 105.718L377.005 106.988ZM308.308 107.981C307.865 107.656 307.428 107.325 306.995 106.988L307.985 105.718C308.405 106.046 308.831 106.368 309.261 106.683L308.308 107.981ZM312.692 110.898C312.221 110.615 311.755 110.326 311.293 110.03L312.161 108.674C312.61 108.962 313.063 109.243 313.521 109.518L312.692 110.898ZM372.707 110.03C372.245 110.326 371.779 110.615 371.308 110.898L370.479 109.518C370.937 109.243 371.39 108.962 371.839 108.674L372.707 110.03ZM368.147 112.662C367.66 112.914 367.169 113.159 366.673 113.398L365.975 111.946C366.457 111.715 366.934 111.477 367.407 111.232L368.147 112.662ZM317.327 113.398C316.831 113.159 316.34 112.914 315.853 112.662L316.593 111.232C317.066 111.477 317.543 111.715 318.025 111.946L317.327 113.398ZM322.173 115.457C321.658 115.266 321.146 115.067 320.637 114.861L321.241 113.369C321.735 113.569 322.232 113.761 322.733 113.947L322.173 115.457ZM363.363 114.861C362.854 115.067 362.342 115.266 361.827 115.457L361.267 113.947C361.768 113.761 362.265 113.569 362.759 113.369L363.363 114.861ZM327.189 117.057C326.658 116.914 326.131 116.764 325.606 116.607L326.068 115.065C326.578 115.217 327.091 115.363 327.607 115.502L327.189 117.057ZM358.394 116.607C357.869 116.764 357.342 116.914 356.811 117.057L356.393 115.502C356.909 115.363 357.422 115.217 357.932 115.065L358.394 116.607ZM332.332 118.183C331.791 118.091 331.252 117.991 330.716 117.883L331.033 116.304C331.554 116.409 332.077 116.506 332.604 116.596L332.332 118.183ZM353.284 117.883C352.748 117.991 352.209 118.091 351.668 118.183L351.396 116.596C351.923 116.506 352.446 116.409 352.967 116.304L353.284 117.883ZM337.557 118.829C337.009 118.787 336.464 118.737 335.921 118.68L336.09 117.078C336.618 117.134 337.149 117.183 337.681 117.224L337.557 118.829ZM348.079 118.68C347.536 118.737 346.991 118.787 346.443 118.829L346.319 117.224C346.851 117.183 347.382 117.134 347.91 117.078L348.079 118.68ZM342 119C341.724 119 341.449 118.998 341.174 118.994L341.197 117.384C341.464 117.388 341.732 117.39 342 117.39C342.268 117.39 342.536 117.388 342.803 117.384L342.826 118.994C342.551 118.998 342.276 119 342 119Z" fill="#333333"/>
<path fill-rule="evenodd" clip-rule="evenodd" d="M342 2.26042C309.007 2.26042 282.26 29.0067 282.26 62C282.26 94.9933 309.007 121.74 342 121.74C374.993 121.74 401.74 94.9933 401.74 62C401.74 29.0067 374.993 2.26042 342 2.26042ZM280 62C280 27.7583 307.758 0 342 0C376.242 0 404 27.7583 404 62C404 96.2416 376.242 124 342 124C307.758 124 280 96.2416 280 62Z" fill="#333333"/>
</svg>
