<?xml version="1.0" encoding="utf-8"?>
<!-- Generator: Adobe Illustrator 26.3.1, SVG Export Plug-In . SVG Version: 6.00 Build 0)  -->
<svg version="1.1" id="Layer_1" xmlns="http://www.w3.org/2000/svg" xmlns:xlink="http://www.w3.org/1999/xlink" x="0px" y="0px"
	 viewBox="0 0 685 392" style="enable-background:new 0 0 685 392;" xml:space="preserve">
<style type="text/css">
	.st0{fill:#BF3434;}
	.st1{fill-rule:evenodd;clip-rule:evenodd;fill:#BF3434;}
</style>
<path class="st0" d="M0,178.6h20.2c1.6,3.8,2.4,5.9,9,14.4l38.4,48.6v-38.5c0-15.6-1-19.5-2.4-24.4h16.3c-1.1,4.5-2.1,9-2.1,18.1
	v45.5c0,13.1,1.6,17.6,2.8,21.1H66.5c-1.5-4.5-4.3-8.5-7.2-12.2l-36-46.1v33.4c0,7.5,0.8,18,3.4,24.9H8.6c2.7-8.8,2.8-20.8,2.8-22.4
	v-51C7.4,184.9,5.1,182.7,0,178.6z M104.9,220.1c0-18.9,17-42.1,46.4-42.1c28,0,42.1,21.2,42.1,42.7c0,26.4-20.3,43.3-44.3,43.3
	C121.9,264,104.9,241.8,104.9,220.1z M119.1,218.2c0,22.9,17.4,36.6,33.6,36.6c18.9,0,27.7-17.7,27.7-31c0-17.6-13.4-36.8-33.2-36.8
	C130.1,187,119.1,201.8,119.1,218.2z M218.7,241.5v-45.1c0-9.9-1.4-14.6-2.3-17.5l16.5-0.2c21.8-0.3,32.1,12.8,32.1,24.2
	c0,13.8-12.2,20.6-16,22.6c7.6,13.3,18,25.9,28,38h-11.6c-11.4-9.8-16.6-15.9-34.1-39.2v20.9c0,6.6,0.1,9.3,2.4,18.3h-17.2
	C218.2,255,218.7,248.8,218.7,241.5z M231.2,185.9V223c8-2.3,20.9-5.9,20.9-18.9C252.1,197.7,248.2,187.6,231.2,185.9z M286.4,178.9
	l17.1-0.2c-0.1,0.8-0.5,3.2-0.5,4.6c0,4,2.3,12.8,3.4,17.1l10.2,38.8l20.6-60.2h0.8l20.1,60.2l11-40.7c1.1-4.4,2.8-11.2,2.8-15.5
	l-0.2-4.1l16.5,0.2c-2.6,5.9-3.2,7.7-4.7,13.7l-19.3,71.3h-10.1l-16.6-49.6l-16.7,49.6h-10.2l-16.7-63.5
	C293.2,198.3,290.2,186.9,286.4,178.9z M402.8,220.1c0-18.9,17-42.1,46.4-42.1c28,0,42.1,21.2,42.1,42.7c0,26.4-20.3,43.3-44.3,43.3
	C419.8,264,402.8,241.8,402.8,220.1z M417.1,218.2c0,22.9,17.4,36.6,33.6,36.6c18.9,0,27.7-17.7,27.7-31c0-17.6-13.4-36.8-33.2-36.8
	C428,187,417.1,201.8,417.1,218.2z M510.6,220.1c0-18.9,17-42.1,46.4-42.1c28,0,42.1,21.2,42.1,42.7c0,26.4-20.3,43.3-44.3,43.3
	C527.6,264,510.6,241.8,510.6,220.1z M524.9,218.2c0,22.9,17.4,36.6,33.6,36.6c18.9,0,27.7-17.7,27.7-31c0-17.6-13.4-36.8-33.2-36.8
	C535.8,187,524.9,201.8,524.9,218.2z M623.6,237.6v-35.8c0-11.8-2.4-18.9-3.4-22.8c2.9-0.2,5.1-0.5,8.8-0.5c15.6,0,34.4,1.5,47.2,18
	c6.2,8,8.5,17.1,8.5,25.3c0,22-16.8,41.6-44.1,41.6h-20.5C622,258.1,623.6,253.2,623.6,237.6z M636.3,201.9v33.7
	c0,9.6,0,12.8,0.7,19.5c25.2-2.5,32.9-21.1,32.9-34.5c0-11.9-6-30.5-32.9-34.2C636.3,191.6,636.3,197.7,636.3,201.9z"/>
<path class="st0" d="M382,306.6h45.7l-6.4,13.1c-9.5-4.3-14.5-5.4-23.4-5.1v29.6h26.6l-7.2,11.9c-9.7-2.8-12.9-3.3-19.3-3.7v31
	c10.8,0,16.8,0,34.8-6.1l-6.2,14.1h-44.4c1.5-5,3.2-11,3.2-21.8v-41.5C385.2,322.3,384.4,314,382,306.6z M454.8,369.4v-45
	c0-9.9-1.4-14.6-2.3-17.5l16.5-0.2c21.8-0.3,32.1,12.8,32.1,24.2c0,13.8-12.2,20.6-16,22.6c7.6,13.3,18,25.9,28,38h-11.6
	c-11.4-9.8-16.6-15.9-34.1-39.2v20.9c0,6.6,0.1,9.3,2.4,18.3h-17.2C454.3,383,454.8,376.8,454.8,369.4z M467.3,313.9V351
	c8-2.3,20.9-5.9,20.9-18.9C488.2,325.7,484.3,315.5,467.3,313.9z M567.9,309.8v13.1c-3.7-2.9-8.5-6.7-16-6.7
	c-7.3,0-13.1,4.7-13.1,11.4c0,8,7.1,12.2,17.7,18.3c12.2,7,15.6,13.7,15.6,21.8c0,14-11,24.2-28.7,24.2c-6.7,0-10.6-1.1-14.6-2.3
	v-18c3.8,4.4,8.8,10.3,16.6,10.3c7.3,0,12.7-5.9,12.7-11.9c0-5.9-4.6-9.6-7.1-11.2c-18.1-11.3-25.3-15.8-25.3-28.7
	c0-13.4,11.2-24.5,25.1-24.5C558.4,305.7,563.8,308.1,567.9,309.8z"/>
<path class="st0" d="M265.5,305.7l-4.5,14.2c16.4-5.9,21.4-5.9,27-5.8v54.6c0,10.1-1.1,16.3-2.4,21.6h17.3
	c-1.8-6.6-2.4-13.4-2.4-20.2v-55.9c10.1,0,5.4,0,19.7,0c5.7,0,2.8,0,6.9,0v54.6c0,10.1-1.1,16.3-2.4,21.6H342
	c-1.8-6.6-2.4-13.4-2.4-20.2v-55.9c9.8,0,12.9,0.8,22.1,4.5l5.9-13L265.5,305.7L265.5,305.7z"/>
<path class="st0" d="M177.5,375.4l-7,15.9h-41.4c2.1-5.4,3.4-8.7,3.4-27.2v-37.4c0-12.2-1.6-16.3-2.9-20h19
	c-1.7,4.4-3.2,8.2-3.3,20.8l-0.5,55.3C159.9,381.4,168.4,379.1,177.5,375.4z"/>
<path class="st0" d="M196.9,306.6h45.7l-6.4,13.1c-9.5-4.3-14.5-5.4-23.4-5.1v29.6h26.6l-7.2,11.9c-9.7-2.8-12.9-3.3-19.3-3.7v31
	c10.8,0,16.8,0,34.8-6.1l-6.2,14.1h-44.4c1.5-5,3.2-11,3.2-21.8v-41.5C200.1,322.3,199.3,314,196.9,306.6z"/>
<path class="st0" d="M302,44h8.9c0.7,1.7,1,2.6,4,6.3l16.8,21.2V54.7c0-6.8-0.4-8.5-1-10.7h7.1c-0.5,2-0.9,3.9-0.9,7.9v19.9
	c0,5.7,0.7,7.7,1.2,9.2h-6.9c-0.6-2-1.9-3.7-3.2-5.3l-15.8-20.1v14.6c0,3.3,0.3,7.8,1.5,10.9h-7.9c1.2-3.8,1.2-9.1,1.2-9.8V49
	C305.2,46.7,304.2,45.8,302,44z"/>
<path class="st0" d="M380,74l-3,7h-18c0.9-2.4,1.5-3.8,1.5-11.9V52.7c0-5.3-0.7-7.1-1.3-8.7h8.2c-0.7,1.9-1.4,3.6-1.4,9.1l-0.2,24.2
	C372.4,76.7,376.1,75.6,380,74z"/>
<path class="st0" d="M347,58.1c-1.7,0.4-3,2.1-3,4c0,1,0.1,1.3,0.7,2.1c1.1,1.5,2.7,2.1,4.4,1.6c1.9-0.5,2.9-1.8,2.9-3.7
	C352,59.4,349.6,57.5,347,58.1z"/>
<path class="st1" d="M341.2,5c0.3,0,0.5,0,0.8,0s0.6,0,0.8,0l0,1.6c-0.3,0-0.5,0-0.8,0s-0.5,0-0.8,0L341.2,5z M346.4,5.2
	c0.5,0,1.1,0.1,1.6,0.1l-0.2,1.6c-0.5-0.1-1.1-0.1-1.6-0.1L346.4,5.2z M335.9,5.3c0.5-0.1,1.1-0.1,1.6-0.1l0.1,1.6
	c-0.5,0-1.1,0.1-1.6,0.1L335.9,5.3z M351.7,5.8c0.5,0.1,1.1,0.2,1.6,0.3L353,7.7c-0.5-0.1-1-0.2-1.6-0.3L351.7,5.8z M330.7,6.1
	c0.5-0.1,1.1-0.2,1.6-0.3l0.3,1.6c-0.5,0.1-1.1,0.2-1.6,0.3L330.7,6.1z M356.8,6.9c0.5,0.1,1.1,0.3,1.6,0.4l-0.5,1.5
	c-0.5-0.2-1-0.3-1.5-0.4L356.8,6.9z M325.6,7.4c0.5-0.2,1.1-0.3,1.6-0.4l0.4,1.6c-0.5,0.1-1,0.3-1.5,0.4L325.6,7.4z M320.6,9.1
	c0.5-0.2,1-0.4,1.5-0.6l0.6,1.5c-0.5,0.2-1,0.4-1.5,0.6L320.6,9.1z M361.8,8.5c0.5,0.2,1,0.4,1.5,0.6l-0.6,1.5
	c-0.5-0.2-1-0.4-1.5-0.6L361.8,8.5z M315.9,11.3c0.5-0.3,1-0.5,1.5-0.7l0.7,1.5c-0.5,0.2-1,0.5-1.4,0.7L315.9,11.3z M366.7,10.6
	c0.5,0.2,1,0.5,1.5,0.7l-0.7,1.4c-0.5-0.2-1-0.5-1.4-0.7L366.7,10.6z M371.3,13.1c0.5,0.3,0.9,0.6,1.4,0.9l-0.9,1.4
	c-0.4-0.3-0.9-0.6-1.4-0.8L371.3,13.1z M311.3,14c0.5-0.3,0.9-0.6,1.4-0.9l0.8,1.4c-0.5,0.3-0.9,0.6-1.4,0.8L311.3,14z M375.7,16
	c0.4,0.3,0.9,0.7,1.3,1l-1,1.3c-0.4-0.3-0.8-0.6-1.3-1L375.7,16z M307,17c0.4-0.3,0.9-0.7,1.3-1l1,1.3c-0.4,0.3-0.9,0.6-1.3,1
	L307,17z M379.8,19.3c0.4,0.4,0.8,0.7,1.2,1.1l-1.1,1.2c-0.4-0.4-0.8-0.7-1.2-1.1L379.8,19.3z M303,20.4c0.4-0.4,0.8-0.7,1.2-1.1
	l1.1,1.2c-0.4,0.4-0.8,0.7-1.2,1.1L303,20.4z M383.6,23c0.4,0.4,0.7,0.8,1.1,1.2l-1.2,1.1c-0.4-0.4-0.7-0.8-1.1-1.2L383.6,23z
	 M299.3,24.2c0.4-0.4,0.7-0.8,1.1-1.2l1.2,1.1c-0.4,0.4-0.7,0.8-1.1,1.2L299.3,24.2z M387,27c0.3,0.4,0.7,0.9,1,1.3l-1.3,1
	c-0.3-0.4-0.6-0.9-1-1.3L387,27z M296,28.3c0.3-0.4,0.7-0.9,1-1.3l1.3,1c-0.3,0.4-0.7,0.8-1,1.3L296,28.3z M293.1,32.7
	c0.3-0.5,0.6-0.9,0.9-1.4l1.4,0.9c-0.3,0.4-0.6,0.9-0.8,1.4L293.1,32.7z M390,31.3c0.3,0.5,0.6,0.9,0.9,1.4l-1.4,0.8
	c-0.3-0.5-0.6-0.9-0.8-1.4L390,31.3z M392.7,35.9c0.3,0.5,0.5,1,0.7,1.5l-1.5,0.7c-0.2-0.5-0.5-1-0.7-1.4L392.7,35.9z M290.6,37.3
	c0.2-0.5,0.5-1,0.7-1.5l1.4,0.7c-0.2,0.5-0.5,1-0.7,1.4L290.6,37.3z M394.9,40.6c0.2,0.5,0.4,1,0.6,1.5l-1.5,0.6
	c-0.2-0.5-0.4-1-0.6-1.5L394.9,40.6z M288.5,42.2c0.2-0.5,0.4-1,0.6-1.5l1.5,0.6c-0.2,0.5-0.4,1-0.6,1.5L288.5,42.2z M286.9,47.2
	c0.1-0.5,0.3-1.1,0.5-1.6l1.5,0.5c-0.2,0.5-0.3,1-0.4,1.5L286.9,47.2z M396.6,45.6c0.2,0.5,0.3,1.1,0.5,1.6l-1.6,0.4
	c-0.1-0.5-0.3-1-0.4-1.5L396.6,45.6z M285.8,52.3c0.1-0.5,0.2-1.1,0.3-1.6l1.6,0.3c-0.1,0.5-0.2,1-0.3,1.6L285.8,52.3z M397.9,50.7
	c0.1,0.5,0.2,1.1,0.3,1.6l-1.6,0.3c-0.1-0.5-0.2-1-0.3-1.6L397.9,50.7z M285.2,57.6c0-0.5,0.1-1.1,0.1-1.6l1.6,0.2
	c-0.1,0.5-0.1,1.1-0.1,1.6L285.2,57.6z M398.7,55.9c0.1,0.5,0.1,1.1,0.1,1.6l-1.6,0.1c0-0.5-0.1-1.1-0.1-1.6L398.7,55.9z M399,61.2
	c0,0.3,0,0.6,0,0.8s0,0.6,0,0.8l-1.6,0c0-0.3,0-0.5,0-0.8s0-0.5,0-0.8L399,61.2z M285,62c0-0.3,0-0.6,0-0.8l1.6,0c0,0.3,0,0.5,0,0.8
	s0,0.5,0,0.8l-1.6,0C285,62.6,285,62.3,285,62z M285.3,68.1c-0.1-0.5-0.1-1.1-0.1-1.6l1.6-0.1c0,0.5,0.1,1.1,0.1,1.6L285.3,68.1z
	 M398.8,66.4c0,0.5-0.1,1.1-0.1,1.6l-1.6-0.2c0.1-0.5,0.1-1.1,0.1-1.6L398.8,66.4z M286.1,73.3c-0.1-0.5-0.2-1.1-0.3-1.6l1.6-0.3
	c0.1,0.5,0.2,1,0.3,1.6L286.1,73.3z M398.2,71.7c-0.1,0.5-0.2,1.1-0.3,1.6l-1.6-0.3c0.1-0.5,0.2-1,0.3-1.6L398.2,71.7z M287.4,78.4
	c-0.2-0.5-0.3-1.1-0.5-1.6l1.6-0.4c0.1,0.5,0.3,1,0.4,1.5L287.4,78.4z M397.1,76.8c-0.1,0.5-0.3,1.1-0.5,1.6l-1.5-0.5
	c0.2-0.5,0.3-1,0.4-1.5L397.1,76.8z M289.1,83.4c-0.2-0.5-0.4-1-0.6-1.5l1.5-0.6c0.2,0.5,0.4,1,0.6,1.5L289.1,83.4z M395.5,81.8
	c-0.2,0.5-0.4,1-0.6,1.5l-1.5-0.6c0.2-0.5,0.4-1,0.6-1.5L395.5,81.8z M291.3,88.1c-0.3-0.5-0.5-1-0.7-1.5l1.5-0.7
	c0.2,0.5,0.5,1,0.7,1.4L291.3,88.1z M393.4,86.7c-0.2,0.5-0.5,1-0.7,1.5l-1.4-0.7c0.2-0.5,0.5-1,0.7-1.4L393.4,86.7z M294,92.7
	c-0.3-0.5-0.6-0.9-0.9-1.4l1.4-0.8c0.3,0.5,0.6,0.9,0.8,1.4L294,92.7z M390.9,91.3c-0.3,0.5-0.6,0.9-0.9,1.4l-1.4-0.9
	c0.3-0.4,0.6-0.9,0.8-1.4L390.9,91.3z M297,97c-0.3-0.4-0.7-0.9-1-1.3l1.3-1c0.3,0.4,0.6,0.9,1,1.3L297,97z M388,95.7
	c-0.3,0.4-0.7,0.9-1,1.3l-1.3-1c0.3-0.4,0.7-0.8,1-1.3L388,95.7z M384.7,99.8c-0.4,0.4-0.7,0.8-1.1,1.2l-1.2-1.1
	c0.4-0.4,0.7-0.8,1.1-1.2L384.7,99.8z M300.4,101c-0.4-0.4-0.7-0.8-1.1-1.2l1.2-1.1c0.4,0.4,0.7,0.8,1.1,1.2L300.4,101z
	 M304.2,104.7c-0.4-0.4-0.8-0.7-1.2-1.1l1.1-1.2c0.4,0.4,0.8,0.7,1.2,1.1L304.2,104.7z M381,103.6c-0.4,0.4-0.8,0.7-1.2,1.1
	l-1.1-1.2c0.4-0.4,0.8-0.7,1.2-1.1L381,103.6z M377,107c-0.4,0.3-0.9,0.7-1.3,1l-1-1.3c0.4-0.3,0.9-0.6,1.3-1L377,107z M308.3,108
	c-0.4-0.3-0.9-0.7-1.3-1l1-1.3c0.4,0.3,0.8,0.6,1.3,1L308.3,108z M312.7,110.9c-0.5-0.3-0.9-0.6-1.4-0.9l0.9-1.4
	c0.4,0.3,0.9,0.6,1.4,0.8L312.7,110.9z M372.7,110c-0.5,0.3-0.9,0.6-1.4,0.9l-0.8-1.4c0.5-0.3,0.9-0.6,1.4-0.8L372.7,110z
	 M368.1,112.7c-0.5,0.3-1,0.5-1.5,0.7l-0.7-1.5c0.5-0.2,1-0.5,1.4-0.7L368.1,112.7z M317.3,113.4c-0.5-0.2-1-0.5-1.5-0.7l0.7-1.4
	c0.5,0.2,1,0.5,1.4,0.7L317.3,113.4z M322.2,115.5c-0.5-0.2-1-0.4-1.5-0.6l0.6-1.5c0.5,0.2,1,0.4,1.5,0.6L322.2,115.5z M363.4,114.9
	c-0.5,0.2-1,0.4-1.5,0.6l-0.6-1.5c0.5-0.2,1-0.4,1.5-0.6L363.4,114.9z M327.2,117.1c-0.5-0.1-1.1-0.3-1.6-0.4l0.5-1.5
	c0.5,0.2,1,0.3,1.5,0.4L327.2,117.1z M358.4,116.6c-0.5,0.2-1.1,0.3-1.6,0.4l-0.4-1.6c0.5-0.1,1-0.3,1.5-0.4L358.4,116.6z
	 M332.3,118.2c-0.5-0.1-1.1-0.2-1.6-0.3l0.3-1.6c0.5,0.1,1,0.2,1.6,0.3L332.3,118.2z M353.3,117.9c-0.5,0.1-1.1,0.2-1.6,0.3
	l-0.3-1.6c0.5-0.1,1.1-0.2,1.6-0.3L353.3,117.9z M337.6,118.8c-0.5,0-1.1-0.1-1.6-0.1l0.2-1.6c0.5,0.1,1.1,0.1,1.6,0.1L337.6,118.8z
	 M348.1,118.7c-0.5,0.1-1.1,0.1-1.6,0.1l-0.1-1.6c0.5,0,1.1-0.1,1.6-0.1L348.1,118.7z M342,119c-0.3,0-0.6,0-0.8,0l0-1.6
	c0.3,0,0.5,0,0.8,0s0.5,0,0.8,0l0,1.6C342.6,119,342.3,119,342,119z"/>
<path class="st1" d="M342,2.3c-33,0-59.7,26.7-59.7,59.7s26.7,59.7,59.7,59.7S401.7,95,401.7,62S375,2.3,342,2.3z M280,62
	c0-34.2,27.8-62,62-62s62,27.8,62,62c0,34.2-27.8,62-62,62S280,96.2,280,62z"/>
</svg>
